<?xml version="1.0" standalone="no"?>
<!DOCTYPE svg PUBLIC "-//W3C//DTD SVG 20010904//EN"
 "http://www.w3.org/TR/2001/REC-SVG-20010904/DTD/svg10.dtd">
<svg version="1.0" xmlns="http://www.w3.org/2000/svg"
 width="512.000000pt" height="512.000000pt" viewBox="0 0 512.000000 512.000000"
 preserveAspectRatio="xMidYMid meet">
<metadata>
Created by potrace 1.14, written by Peter Selinger 2001-2017
</metadata>
<g transform="translate(0.000000,512.000000) scale(0.100000,-0.100000)"
fill="#000000" stroke="none">
<path d="M1539 3917 c-85 -57 -66 -189 34 -226 16 -6 93 -11 173 -11 l144 0 0
-305 0 -305 -268 0 c-216 0 -279 -3 -323 -16 -183 -54 -322 -197 -364 -375
-13 -55 -15 -209 -15 -1075 l0 -1011 58 -45 c63 -49 237 -168 246 -168 3 0 6
485 6 1078 0 1183 -2 1139 60 1214 16 20 53 48 82 62 l52 26 1136 0 1136 0 52
-26 c29 -14 66 -42 82 -62 62 -75 60 -31 60 -1214 0 -593 2 -1078 6 -1078 9 0
122 78 216 148 l88 66 0 1000 c0 1086 0 1073 -56 1191 -35 76 -138 184 -211
223 -105 55 -153 62 -442 62 l-261 0 0 305 0 305 144 0 c80 0 157 5 173 11
100 37 119 169 34 226 l-34 23 -987 0 -987 0 -34 -23z m1531 -542 l0 -305
-510 0 -510 0 0 305 0 305 510 0 510 0 0 -305z"/>
<path d="M1451 2660 c-46 -11 -83 -40 -103 -81 -17 -32 -18 -107 -18 -1150 l0
-1117 84 -41 c723 -353 1537 -358 2259 -14 l117 56 -2 1126 -3 1126 -23 33
c-52 72 37 67 -1182 69 -602 0 -1110 -2 -1129 -7z m1956 -382 c31 -29 30 -72
-2 -103 l-24 -25 -821 0 -821 0 -24 25 c-31 30 -32 71 -3 102 l21 23 826 0
825 0 23 -22z m-409 -704 c27 -19 30 -79 6 -127 -9 -18 -62 -78 -117 -134
l-101 -103 12 -32 c32 -81 142 -415 142 -429 0 -17 -73 -89 -89 -89 -15 0 -33
21 -158 181 -64 82 -119 149 -123 149 -3 0 -40 -35 -82 -77 l-76 -78 11 -63
c11 -61 10 -63 -16 -90 l-27 -26 -50 49 c-46 46 -55 50 -98 50 l-47 0 0 47 c0
42 -5 52 -42 90 -24 24 -43 48 -43 54 0 6 10 20 23 31 20 19 28 20 85 12 l62
-9 73 76 c39 42 73 79 75 83 1 3 -70 63 -158 131 -114 89 -160 131 -160 145 0
12 17 38 38 58 l39 38 114 -35 c63 -19 166 -55 229 -79 l115 -45 101 99 c130
128 205 163 262 123z"/>
</g>
</svg>
